<svg id="Layer_4" viewBox="0 0 512 512" xmlns="http://www.w3.org/2000/svg" data-name="Layer 4"><path d="m320 352 152-88-168-96v136z" fill="#e84700"/><path d="m304 256.964v47.036h-104v-136h104" fill="#55ba13"/><path d="m309.668 96c0 22.621-18.338 48-40.959 48h-38.082c-22.621 0-38.627-17.379-38.627-40v-56h117.668z" fill="#ffc880"/><path d="m177.947 28.465 14.053 19.535h85.668l32 48 18.332-54.856v-17.211c0-10.333-8-15.933-18.332-15.933h-120.134a13.513 13.513 0 0 0 -11.587 20.465z" fill="#f4bb03"/><g fill="#ffc880"><path d="m232 144h40v24h-40z"/><path d="m96 56v-40l-32-8-32 24 32 48 136 144v-56z"/><path d="m346.842 232-42.842-64v48l-24-8-16-24-32 8v32l40 16 64 33.928 8.275-8.275a25.911 25.911 0 0 0 2.567-33.653z"/></g><path d="m304 304 48 144-48 16-55-120h-73l40 56-32 32-74.436-95.654a20.805 20.805 0 0 1 17.311-32.346z" fill="#55ba13"/><path d="m328 456v48l32-32-8-24z" fill="#e84700"/><path d="m192 424 24 48 16-56-16-16z" fill="#e84700"/><path d="m232 160.165c11.687-.22 27.484-1.262 40-4.8v-11.388h-40z" fill="#ea9734"/><circle cx="265.667" cy="76" r="12"/><circle cx="217.667" cy="76" r="12"/><path d="m269.668 104h-16a8 8 0 1 1 -16 0h-16a24 24 0 1 0 48 0z"/><path d="m475.969 257.054-168-96-.005.009a7.992 7.992 0 0 0 -3.964-1.048v-.015h-24v-9.682c8.85-2.65 17.087-8.384 23.894-16.807a61.3 61.3 0 0 0 13.74-36.111l17.954-53.723a8.025 8.025 0 0 0 .412-2.532v-17.212c0-14.091-10.828-23.933-26.332-23.933h-120.135a21.269 21.269 0 0 0 -18.72 10.913 21.27 21.27 0 0 0 .272 21.667q.171.286.366.557l12.549 17.442v53.421c0 25.037 16.785 44.43 40 47.549v8.451h-20.512l-99.488-107.141v-36.859a8 8 0 0 0 -6.06-7.761l-32-8a7.987 7.987 0 0 0 -6.74 1.361l-32 24a8 8 0 0 0 -1.856 10.838l32 48c.046.07.1.133.149.2.08.112.16.223.246.331s.18.217.273.322c.058.066.11.137.171.2l133.817 141.69v68.819h-65.125a28.8 28.8 0 0 0 -23.967 44.783q.163.245.343.476l74.436 95.654a8 8 0 0 0 11.971.744l.151-.151 19.036 38.072a8 8 0 0 0 7.155 4.422c.246 0 .5-.011.743-.034a8 8 0 0 0 6.952-5.768l16-56a8 8 0 0 0 -2.035-7.855l-15.536-15.536-30.578-42.807h52.32l52.861 115.333a8 8 0 0 0 9.8 4.257l13.473-4.49v36.9a8 8 0 0 0 13.657 5.657l32-32a8 8 0 0 0 1.933-8.187l-8-24-29.938-89.813 146.356-84.732a8 8 0 0 0 -.039-13.87zm-152.406-18.4 8.875-13.312-20.438-13.623v-17.387l28.193 42.118c.064.1.131.19.2.283a17.813 17.813 0 0 1 -1.776 23.267l-4.094 4.094-53.243-28.229 4.386-17.544 14.79 4.931zm-127.463-198.654-11.426-15.882a5.514 5.514 0 0 1 4.859-8.118h120.135c3.858 0 10.332 1.03 10.332 7.933v15.91l-12.74 38.123-22.936-34.4a8 8 0 0 0 -6.656-3.566zm3.9 64v-48h73.387l28.213 42.315c-1.2 21.071-18.486 37.685-32.891 37.685h-38.082c-17.746 0-30.627-13.458-30.627-32zm64 48v8h-24v-8zm-56 24h88v28.9l-10.867-3.623-14.477-21.715a7.989 7.989 0 0 0 -8.6-3.323l-32 8a8 8 0 0 0 -6.056 7.761v32a8 8 0 0 0 5.029 7.428l39.6 15.84 27.371 14.51v34.222h-88zm63.381 33.493-4.919 19.676-26.462-10.585v-20.338l20.471-5.117zm-228.527-175.634 22.9-17.175 22.246 5.562v29.754l-22.035 16.526zm33.116 47.164 19.068-14.3 96.962 104.418v32.737zm147.045 337.305-9.057 31.7-12.224-24.448 14.266-14.266zm127.832 51.511-14.847 14.848v-22.92l10.94-3.646zm-8.966-26.9-33.6 11.2-52.009-113.472a8 8 0 0 0 -7.272-4.667h-73a8 8 0 0 0 -6.51 12.649l36.061 50.485-20.8 20.8-68.672-88.244a12.8 12.8 0 0 1 10.8-19.69h171.354zm-17.395-102.78-12.486-37.459v-32.44l20.253 10.74a8 8 0 0 0 9.4-1.412l8.273-8.274a33.723 33.723 0 0 0 3.469-43.9l-23.82-35.584 126.375 72.214z"/></svg>